<?xml version="1.0" standalone="no"?>
<!DOCTYPE svg PUBLIC "-//W3C//DTD SVG 20010904//EN"
 "http://www.w3.org/TR/2001/REC-SVG-20010904/DTD/svg10.dtd">
<svg version="1.0" xmlns="http://www.w3.org/2000/svg"
 width="661.000000pt" height="661.000000pt" viewBox="0 0 661.000000 661.000000"
 preserveAspectRatio="xMidYMid meet">
<metadata>
Created by potrace 1.11, written by Peter Selinger 2001-2013
</metadata>
<g transform="translate(0.000000,661.000000) scale(0.100000,-0.100000)"
fill="#000000" stroke="none">
<path d="M6 6490 c-1 -3 -2 -1438 -2 -3190 l1 -3185 3300 0 3300 0 0 3188 c0
2118 -3 3187 -10 3188 -46 4 -6587 3 -6589 -1z m5515 -414 c4 -104 0 -5448 -4
-5452 -2 -3 -1000 -6 -2216 -7 l-2211 -2 0 125 c0 242 0 4540 0 4946 l0 412
2215 -1 2215 0 1 -21z m-4846 -236 c1 -118 -1 -221 -3 -227 -3 -10 -54 -13
-208 -13 -112 0 -204 3 -205 8 0 10 -1 381 0 418 l1 32 207 -2 208 -1 0 -215z
m5677 121 c2 -53 2 -156 0 -228 l-3 -133 -205 0 c-112 0 -205 3 -205 8 -4 20
-5 429 -1 438 2 8 64 12 207 12 l204 0 3 -97z m-5677 -854 l0 -227 -125 -1
c-188 -1 -283 1 -288 5 -3 4 -6 312 -3 421 l1 30 207 0 208 0 0 -228z m5675
216 c1 -17 1 -237 0 -353 l0 -90 -208 0 -207 0 1 228 c1 125 2 227 3 227 0 0
93 0 206 0 157 0 205 -3 205 -12z m-5682 -718 c4 -4 7 -105 7 -226 l0 -219
-207 0 c-191 0 -208 1 -209 18 -6 139 0 425 8 430 14 9 393 6 401 -3z m5678 2
c6 -6 6 -438 0 -444 -2 -2 -94 -5 -205 -6 -172 -2 -201 0 -202 13 -1 8 -2 110
-3 225 -1 158 2 211 11 215 16 7 393 4 399 -3z m-5678 -722 c8 -8 10 -444 2
-446 -3 -1 -96 -2 -208 -3 -173 -1 -202 1 -203 14 -6 88 1 434 9 439 13 8 392
4 400 -4z m5678 3 c4 -4 6 -195 4 -398 l0 -55 -204 0 c-176 -1 -205 2 -208 15
-2 8 -4 109 -3 225 l0 210 29 5 c37 6 375 4 382 -2z m-5672 -940 c-1 -123 -2
-225 -3 -228 -2 -10 -411 -5 -412 5 0 15 -1 385 0 418 l1 27 208 0 207 0 -1
-222z m5676 175 c0 -27 1 -128 3 -226 1 -112 -2 -177 -8 -178 -65 -7 -405 -2
-406 6 -1 5 -2 108 -3 228 l-1 217 207 0 208 0 0 -47z m-5675 -901 l0 -228
-207 -1 -208 0 -1 46 c-1 66 -1 351 0 384 l1 27 208 0 207 0 0 -228z m5675
138 c1 -299 1 -351 -4 -358 -8 -14 -406 -11 -407 2 -1 6 -2 109 -3 229 l-1
217 207 0 208 0 0 -90z m-5675 -858 c0 -191 -2 -223 -15 -226 -8 -2 -102 -4
-207 -4 l-193 1 -1 46 c-1 70 -1 385 0 397 1 7 68 10 208 10 l207 -1 1 -223z
m5670 217 c7 -10 8 -426 1 -437 -3 -5 -97 -9 -208 -8 l-203 1 -1 215 c0 118 2
220 3 226 5 13 401 16 408 3z m-5685 -715 c13 -3 15 -35 15 -226 l-1 -223
-207 -3 c-192 -2 -207 -1 -208 15 -1 19 -1 384 0 419 1 21 5 21 194 22 105 0
199 -2 207 -4z m5685 -5 c4 -5 8 -333 5 -432 0 -16 -15 -17 -207 -15 l-208 3
-1 215 c0 118 2 220 3 226 5 13 401 16 408 3z"/>
<path d="M2068 5125 c-15 -8 -31 -29 -36 -47 -15 -48 -13 -3470 2 -3499 6 -12
23 -31 38 -42 25 -19 42 -20 247 -19 245 1 274 8 289 65 4 15 7 324 7 686 0
614 -1 659 -18 685 -37 55 -120 57 -160 4 -19 -26 -20 -43 -20 -632 l0 -606
-93 0 c-68 0 -94 3 -95 13 -4 42 -3 2987 1 2987 3 0 48 -61 100 -135 52 -75
124 -176 160 -224 166 -228 1559 -2160 1818 -2521 182 -255 225 -308 258 -316
40 -10 87 5 109 34 20 27 20 46 21 1762 1 1877 3 1783 -52 1809 -55 25 -115 6
-137 -43 -11 -26 -13 -286 -13 -1593 1 -860 0 -1563 -1 -1563 -2 0 -105 139
-123 166 -8 13 -94 132 -191 266 -461 637 -1774 2459 -1862 2583 -130 183
-142 195 -186 195 -20 -1 -48 -7 -63 -15z"/>
</g>
</svg>
